# This file uses centimeters as units for non-parametric coordinates.

mtllib bowling_ally.mtl
g default
v -43.571206 0.388431 12.517073
v 42.214852 0.388431 12.517073
v -43.571206 -0.127714 11.714358
v 42.214852 -0.127714 11.714358
v -43.571206 -0.127714 10.951368
v 42.214852 -0.127714 10.951368
v -43.571206 0.388431 10.063311
v 42.214852 0.388431 10.063311
v -43.571206 0.388431 -2.541101
v 42.214852 0.388431 -2.541101
v -43.571206 -0.127713 -3.429159
v 42.214852 -0.127713 -3.429159
v -43.571206 -0.127713 -4.192147
v 42.214852 -0.127713 -4.192147
v -43.571206 0.388431 -4.994862
v 42.214852 0.388431 -4.994862
v -43.571206 0.130359 12.115716
v 42.214852 0.130359 12.115716
v -43.571206 -0.127714 11.332864
v 42.214852 -0.127714 11.332864
v -43.571206 0.130359 10.507340
v 42.214852 0.130359 10.507340
v -43.571206 0.130359 -2.985130
v 42.214852 0.130359 -2.985130
v -43.571206 -0.127713 -3.810653
v 42.214852 -0.127713 -3.810653
v -43.571206 0.130359 -4.593505
v 42.214852 0.130359 -4.593505
v -43.571206 20.179420 12.517073
v 42.214852 20.179420 12.517073
v -43.571206 20.179420 -4.994862
v 42.214852 20.179420 -4.994862
vt 0.010746 0.023418
vt 0.181486 0.022748
vt 0.181472 0.181631
vt 0.010732 0.182301
vt 0.010719 0.341183
vt 0.181459 0.340513
vt 0.181446 0.491532
vt 0.010706 0.492202
vt 0.010693 0.643224
vt 0.181433 0.642553
vt 0.181419 0.818328
vt 0.010678 0.818998
vt 0.010664 0.994773
vt 0.181404 0.994103
vt 0.010628 0.024238
vt 0.181368 0.023568
vt 0.181354 0.199343
vt 0.010613 0.200013
vt 0.010598 0.375786
vt 0.181339 0.375116
vt 0.181326 0.526137
vt 0.010586 0.526807
vt 0.010573 0.677827
vt 0.181313 0.677157
vt 0.181300 0.836040
vt 0.010560 0.836710
vt 0.181286 0.994922
vt 0.010546 0.995593
vt 0.197475 1.001760
vt 0.197601 -0.007457
vt 1.001650 -0.003902
vt 1.001524 1.005316
vt 0.000000 0.000000
vt 1.000000 0.000000
vt 1.000000 1.000000
vt 0.000000 1.000000
vt 0.000000 0.000000
vt 0.000000 1.000000
vt 0.000000 0.000000
vt 0.000000 0.000000
vt 1.000000 0.000000
vt 1.000000 1.000000
vt 0.000000 0.000000
vt 0.000000 0.000000
vt 0.000000 0.000000
vt 0.000000 0.000000
vt 0.000000 0.000000
vt 0.000000 0.000000
vt 0.000000 0.000000
vt 0.000000 0.000000
vt 0.000000 0.000000
vt 0.000000 0.000000
vt 0.000000 0.000000
vt 0.000000 0.000000
vt 0.000000 0.000000
vt 0.000000 0.000000
vt 0.000000 0.000000
vt 0.000000 0.000000
vt 0.000000 0.000000
vt 0.000000 0.000000
vt 0.000000 0.000000
vt 0.000000 0.000000
vt 0.000000 0.000000
vt 1.000000 0.000000
vt 1.000000 1.000000
vt 0.000000 0.000000
vt 0.000000 0.000000
vt 0.000000 1.000000
vt 0.000000 0.000000
vt 1.000000 0.000000
vt 1.000000 1.000000
vt 0.000000 1.000000
vn 0.000000 0.841124 -0.540843
vn 0.000000 0.841124 -0.540843
vn 0.000000 0.841124 -0.540842
vn 0.000000 0.841124 -0.540842
vn 0.000000 0.959459 -0.281847
vn 0.000000 0.959459 -0.281847
vn 0.000000 1.000000 0.000000
vn 0.000000 1.000000 0.000000
vn 0.000000 0.965551 0.260213
vn 0.000000 0.965551 0.260213
vn 0.000000 0.864578 0.502498
vn 0.000000 0.864578 0.502498
vn 0.000000 0.965551 0.260213
vn 0.000000 0.965551 0.260213
vn 0.000000 0.965551 -0.260213
vn 0.000000 0.965551 -0.260213
vn 0.000000 0.864579 -0.502498
vn 0.000000 0.864579 -0.502498
vn 0.000000 0.965551 -0.260213
vn 0.000000 0.965551 -0.260213
vn 0.000000 1.000000 0.000000
vn 0.000000 1.000000 0.000000
vn 0.000000 0.959459 0.281847
vn 0.000000 0.959459 0.281847
vn 0.000000 0.841124 0.540842
vn 0.000000 0.841124 0.540842
vn 0.000000 0.841124 0.540843
vn 0.000000 0.841124 0.540843
vn 0.000000 0.000000 -1.000000
vn 0.000000 0.000000 -1.000000
vn 0.000000 0.000000 -1.000000
vn 0.000000 0.000000 -1.000000
vn 1.000000 0.000000 0.000000
vn 1.000000 0.000000 0.000000
vn 1.000000 0.000000 0.000000
vn 1.000000 0.000000 0.000000
vn 1.000000 0.000000 0.000000
vn 1.000000 0.000000 0.000000
vn 1.000000 0.000000 0.000000
vn 1.000000 0.000000 0.000000
vn 1.000000 0.000000 0.000000
vn 1.000000 0.000000 0.000000
vn 1.000000 0.000000 0.000000
vn 1.000000 0.000000 0.000000
vn 1.000000 0.000000 0.000000
vn 1.000000 0.000000 0.000000
vn 1.000000 0.000000 0.000000
vn 1.000000 0.000000 0.000000
vn -1.000000 0.000000 0.000000
vn -1.000000 0.000000 0.000000
vn -1.000000 0.000000 0.000000
vn -1.000000 0.000000 0.000000
vn -1.000000 0.000000 0.000000
vn -1.000000 0.000000 0.000000
vn -1.000000 0.000000 0.000000
vn -1.000000 0.000000 0.000000
vn -1.000000 0.000000 0.000000
vn -1.000000 0.000000 0.000000
vn -1.000000 0.000000 0.000000
vn -1.000000 0.000000 0.000000
vn -1.000000 0.000000 0.000000
vn -1.000000 0.000000 0.000000
vn -1.000000 0.000000 0.000000
vn -1.000000 0.000000 0.000000
vn 0.000000 0.000000 1.000000
vn 0.000000 0.000000 1.000000
vn 0.000000 0.000000 1.000000
vn 0.000000 0.000000 1.000000
vn 0.000000 -1.000000 0.000000
vn 0.000000 -1.000000 0.000000
vn 0.000000 -1.000000 0.000000
vn 0.000000 -1.000000 0.000000
s 1
g pPlane2 pPlane1SmoothProxyGroup
usemtl phong1SG
f 1/1/1 2/2/2 18/3/3 17/4/4
f 3/5/5 17/4/4 18/3/3 4/6/6
f 3/5/5 4/6/6 20/7/7 19/8/8
f 5/9/9 19/8/8 20/7/7 6/10/10
f 5/9/9 6/10/10 22/11/11 21/12/12
f 7/13/13 21/12/12 22/11/11 8/14/14
f 7/29/13 8/30/14 10/31/15 9/32/16
f 9/15/16 10/16/15 24/17/17 23/18/18
f 11/19/19 23/18/18 24/17/17 12/20/20
f 11/19/19 12/20/20 26/21/21 25/22/22
f 13/23/23 25/22/22 26/21/21 14/24/24
f 13/23/23 14/24/24 28/25/25 27/26/26
f 16/27/27 15/28/28 27/26/26 28/25/25
s off
f 2/33/29 1/34/30 29/35/31 30/36/32
f 31/65/33 29/38/34 1/37/35 17/39/36 3/44/37 19/45/38 5/48/39 21/49/40 7/52/41 9/54/42 23/55/43 11/58/44 25/59/45 13/62/46 27/63/47 15/64/48
f 30/42/49 32/68/50 16/67/51 28/66/52 14/61/53 26/60/54 12/57/55 24/56/56 10/53/57 8/51/58 22/50/59 6/47/60 20/46/61 4/43/62 18/40/63 2/41/64
f 15/69/65 16/70/66 32/71/67 31/72/68
f 30/36/69 29/38/70 31/72/71 32/68/72
