# This file uses centimeters as units for non-parametric coordinates.

mtllib Small_box.mtl
g default
v -1.757489 0.193855 0.757766
v 0.757489 0.193855 0.757766
v -1.757489 2.711180 0.757766
v 0.757489 2.711180 0.757766
v -1.757489 2.711180 -1.757766
v 0.757489 2.711180 -1.757766
v -1.757489 0.193855 -1.757766
v 0.757489 0.193855 -1.757766
v -1.291690 0.117085 0.834821
v 0.291690 0.117085 0.834821
v -1.291690 2.787950 0.834821
v 0.291690 2.787950 0.834821
v -1.291690 2.787950 -1.834821
v 0.291690 2.787950 -1.834821
v -1.291690 0.117085 -1.834821
v 0.291690 0.117085 -1.834821
v -1.834632 0.659214 0.834821
v 0.834632 0.659214 0.834821
v -1.834632 2.245821 0.834821
v 0.834632 2.245821 0.834821
v -1.834632 2.787950 0.292072
v 0.834632 2.787950 0.292072
v -1.834632 2.787950 -1.292072
v 0.834632 2.787950 -1.292072
v -1.834632 2.245821 -1.834821
v 0.834632 2.245821 -1.834821
v -1.834632 0.659214 -1.834821
v 0.834632 0.659214 -1.834821
v -1.834632 0.117085 -1.292072
v 0.834632 0.117085 -1.292072
v -1.834632 0.117085 0.292072
v 0.834632 0.117085 0.292072
v -1.299197 0.651744 0.969578
v 0.299197 0.651744 0.969578
v -1.299197 2.253291 0.969578
v 0.299197 2.253291 0.969578
v -1.299197 2.922208 0.299570
v 0.299197 2.922208 0.299570
v -1.299197 2.922208 -1.299570
v 0.299197 2.922208 -1.299570
v -1.299197 2.253291 -1.969578
v 0.299197 2.253291 -1.969578
v -1.299197 0.651744 -1.969578
v 0.299197 0.651744 -1.969578
v -1.299197 -0.017173 -1.299570
v 0.299197 -0.017173 -1.299570
v -1.299197 -0.017173 0.299570
v 0.299197 -0.017173 0.299570
v 0.969543 0.651744 -1.299570
v 0.969543 0.651744 0.299570
v 0.969543 2.253291 -1.299570
v 0.969543 2.253291 0.299570
v -1.969543 0.651744 -1.299570
v -1.969543 0.651744 0.299570
v -1.969543 2.253291 -1.299570
v -1.969543 2.253291 0.299570
v -1.655107 0.149742 0.802043
v 0.655108 0.149742 0.802043
v -1.655107 2.755292 0.802043
v 0.655108 2.755292 0.802043
v -1.655107 2.755292 -1.802043
v 0.655108 2.755292 -1.802043
v -1.655107 0.149742 -1.802042
v 0.655108 0.149742 -1.802042
v -1.801816 0.295740 0.802043
v 0.801816 0.295740 0.802043
v -1.801816 2.609294 0.802043
v 0.801816 2.609294 0.802043
v -1.801816 2.755292 0.655502
v 0.801816 2.755292 0.655502
v -1.801816 2.755292 -1.655503
v 0.801816 2.755292 -1.655502
v -1.801816 2.609294 -1.802042
v 0.801816 2.609294 -1.802043
v -1.801816 0.295740 -1.802042
v 0.801816 0.295740 -1.802042
v -1.801816 0.149742 -1.655502
v 0.801816 0.149742 -1.655502
v -1.801816 0.149742 0.655503
v 0.801816 0.149742 0.655503
v -1.294693 0.265858 0.924588
v -1.685135 0.656226 0.924588
v 0.294693 0.265858 0.924588
v 0.685135 0.656226 0.924588
v -1.294693 2.639177 0.924588
v -1.685135 2.248809 0.924588
v 0.685135 2.248809 0.924588
v 0.294693 2.639177 0.924588
v -1.294693 2.877384 0.685496
v -1.685135 2.877384 0.295071
v 0.294693 2.877384 0.685496
v 0.685135 2.877384 0.295071
v -1.294693 2.877384 -1.685496
v -1.685135 2.877384 -1.295071
v 0.685135 2.877384 -1.295071
v 0.294693 2.877384 -1.685496
v -1.294693 2.639177 -1.924588
v -1.685135 2.248809 -1.924588
v 0.294693 2.639177 -1.924588
v 0.685135 2.248809 -1.924588
v -1.294693 0.265858 -1.924588
v -1.685135 0.656226 -1.924588
v 0.685135 0.656226 -1.924588
v 0.294693 0.265858 -1.924588
v -1.294693 0.027651 -1.685496
v -1.685135 0.027651 -1.295071
v 0.294693 0.027651 -1.685496
v 0.685135 0.027651 -1.295071
v -1.294693 0.027651 0.685496
v -1.685135 0.027651 0.295071
v 0.685135 0.027651 0.295071
v 0.294693 0.027651 0.685496
v 0.924501 0.265858 -1.295071
v 0.924501 0.656226 -1.685496
v 0.924501 0.265858 0.295071
v 0.924501 0.656226 0.685496
v 0.924501 2.248809 -1.685496
v 0.924501 2.639177 -1.295071
v 0.924501 2.639177 0.295071
v 0.924501 2.248809 0.685496
v -1.924501 0.265858 -1.295071
v -1.924501 0.656226 -1.685496
v -1.924501 0.265858 0.295071
v -1.924501 0.656226 0.685496
v -1.924501 2.639177 -1.295071
v -1.924501 2.248809 -1.685496
v -1.924501 2.248809 0.685496
v -1.924501 2.639177 0.295071
v -1.667119 0.283787 0.883454
v 0.667119 0.283787 0.883454
v -1.667119 2.621247 0.883454
v 0.667119 2.621247 0.883454
v -1.667119 2.836402 0.667500
v 0.667119 2.836402 0.667500
v -1.667119 2.836402 -1.667500
v 0.667119 2.836402 -1.667500
v -1.667119 2.621247 -1.883454
v 0.667119 2.621247 -1.883454
v -1.667119 0.283787 -1.883454
v 0.667119 0.283787 -1.883454
v -1.667119 0.068632 -1.667500
v 0.667119 0.068632 -1.667500
v -1.667119 0.068632 0.667500
v 0.667119 0.068632 0.667500
v 0.883320 0.283787 -1.667500
v 0.883320 0.283787 0.667500
v 0.883320 2.621247 -1.667500
v 0.883320 2.621247 0.667500
v -1.883320 0.283787 -1.667500
v -1.883320 0.283787 0.667500
v -1.883320 2.621247 -1.667500
v -1.883320 2.621247 0.667500
vt 0.799407 0.200182
vt 0.200593 0.200182
vt 0.202280 0.055702
vt 0.797720 0.055702
vt 0.203405 0.000000
vt 0.796595 0.000000
vt 0.012294 0.066890
vt 0.028901 0.028743
vt 0.067256 0.012227
vt 0.062756 0.062415
vt 0.056007 0.201860
vt 0.000000 0.202979
vt 0.932744 0.012227
vt 0.971099 0.028743
vt 0.987706 0.066890
vt 0.937244 0.062415
vt 1.000000 0.202979
vt 0.943993 0.201860
vt 0.200593 0.799818
vt 0.799407 0.799818
vt 0.797720 0.944298
vt 0.202280 0.944298
vt 0.203405 1.000000
vt 0.796595 1.000000
vt 0.067256 0.987773
vt 0.028901 0.971256
vt 0.012294 0.933110
vt 0.062756 0.937585
vt 0.000000 0.797021
vt 0.056007 0.798140
vt 1.000000 0.797021
vt 0.943993 0.798140
vt 0.987706 0.933110
vt 0.971099 0.971256
vt 0.932744 0.987773
vt 0.937244 0.937585
vt 0.514436 0.258559
vt 0.365196 0.258559
vt 0.365616 0.222531
vt 0.514015 0.222531
vt 0.365897 0.208591
vt 0.513735 0.208591
vt 0.318267 0.225331
vt 0.322406 0.215784
vt 0.331965 0.211651
vt 0.330844 0.224211
vt 0.329161 0.258980
vt 0.315203 0.259259
vt 0.547666 0.211651
vt 0.557226 0.215784
vt 0.561364 0.225331
vt 0.548788 0.224211
vt 0.564428 0.259259
vt 0.550470 0.258979
vt 0.514436 0.407848
vt 0.365196 0.407848
vt 0.514015 0.443876
vt 0.365616 0.443876
vt 0.365897 0.457816
vt 0.513735 0.457816
vt 0.331965 0.454756
vt 0.322406 0.450623
vt 0.318267 0.441076
vt 0.330844 0.442196
vt 0.315203 0.407148
vt 0.329161 0.407428
vt 0.564428 0.407148
vt 0.550470 0.407428
vt 0.561364 0.441076
vt 0.557226 0.450623
vt 0.547666 0.454756
vt 0.548788 0.442196
vt 0.848084 0.437252
vt 0.643708 0.437252
vt 0.644283 0.486563
vt 0.847508 0.486563
vt 0.644667 0.505574
vt 0.847124 0.505574
vt 0.579441 0.482744
vt 0.585109 0.495764
vt 0.598199 0.501401
vt 0.596664 0.484272
vt 0.594360 0.436679
vt 0.575245 0.436297
vt 0.893592 0.501401
vt 0.906683 0.495764
vt 0.912350 0.482744
vt 0.895127 0.484272
vt 0.916546 0.436297
vt 0.897431 0.436679
vt 0.643708 0.232595
vt 0.848084 0.232595
vt 0.847508 0.183284
vt 0.644283 0.183284
vt 0.644667 0.164272
vt 0.847124 0.164272
vt 0.598199 0.168446
vt 0.585109 0.174083
vt 0.579441 0.187102
vt 0.596664 0.185575
vt 0.575245 0.233549
vt 0.594360 0.233168
vt 0.916546 0.233549
vt 0.897431 0.233168
vt 0.912350 0.187102
vt 0.906683 0.174083
vt 0.893592 0.168446
vt 0.895127 0.185575
vt 0.348557 0.395007
vt 0.207800 0.395007
vt 0.208196 0.428988
vt 0.348160 0.428988
vt 0.208461 0.442136
vt 0.347896 0.442136
vt 0.163538 0.426347
vt 0.167442 0.435351
vt 0.176457 0.439250
vt 0.175400 0.427403
vt 0.173813 0.394611
vt 0.160648 0.394347
vt 0.379899 0.439250
vt 0.388915 0.435351
vt 0.392818 0.426347
vt 0.380956 0.427403
vt 0.395708 0.394347
vt 0.382543 0.394611
vt 0.348557 0.254204
vt 0.207800 0.254204
vt 0.348160 0.220224
vt 0.208196 0.220224
vt 0.208461 0.207076
vt 0.347896 0.207076
vt 0.176457 0.209962
vt 0.167442 0.213861
vt 0.163538 0.222865
vt 0.175400 0.221809
vt 0.160648 0.254865
vt 0.173813 0.254601
vt 0.395708 0.254865
vt 0.382543 0.254601
vt 0.392818 0.222865
vt 0.388915 0.213861
vt 0.379899 0.209962
vt 0.380956 0.221809
vt 0.493994 0.006629
vt 0.501680 0.009943
vt 0.505008 0.017598
vt 0.494896 0.016700
vt 0.507472 0.044905
vt 0.496248 0.044680
vt 0.467241 0.044343
vt 0.466903 0.015353
vt 0.466678 0.004176
vt 0.507472 0.164102
vt 0.496248 0.164327
vt 0.467241 0.164664
vt 0.347047 0.044343
vt 0.347385 0.015353
vt 0.347611 0.004176
vt 0.347047 0.164664
vt 0.318040 0.164327
vt 0.318040 0.044680
vt 0.306817 0.044905
vt 0.306817 0.164102
vt 0.309280 0.017598
vt 0.312608 0.009943
vt 0.320294 0.006629
vt 0.319393 0.016700
vt 0.505008 0.191409
vt 0.501680 0.199064
vt 0.493994 0.202378
vt 0.494896 0.192307
vt 0.466678 0.204831
vt 0.466903 0.193654
vt 0.347385 0.193654
vt 0.347611 0.204831
vt 0.320294 0.202378
vt 0.312608 0.199064
vt 0.309280 0.191409
vt 0.319393 0.192307
vt 0.088324 0.072770
vt 0.237612 0.072770
vt 0.237192 0.036762
vt 0.088744 0.036762
vt 0.236912 0.022880
vt 0.089024 0.022880
vt 0.284521 0.039550
vt 0.280387 0.030043
vt 0.270841 0.025927
vt 0.271961 0.038435
vt 0.273641 0.073188
vt 0.287581 0.073467
vt 0.055096 0.025927
vt 0.045549 0.030043
vt 0.041416 0.039550
vt 0.053976 0.038435
vt 0.038356 0.073467
vt 0.052296 0.073188
vt 0.088324 0.222215
vt 0.237612 0.222215
vt 0.089024 0.272105
vt 0.236912 0.272105
vt 0.237192 0.258223
vt 0.088744 0.258223
vt 0.270841 0.269058
vt 0.280387 0.264941
vt 0.284521 0.255434
vt 0.271961 0.256550
vt 0.287581 0.221517
vt 0.273641 0.221796
vt 0.038356 0.221517
vt 0.052296 0.221796
vt 0.041416 0.255434
vt 0.045549 0.264941
vt 0.055096 0.269058
vt 0.053976 0.256550
vn 0.058006 -0.058015 0.996629
vn -0.058006 -0.058015 0.996629
vn -0.060525 -0.324656 0.943893
vn 0.060525 -0.324656 0.943893
vn -0.062184 -0.706897 0.704577
vn 0.062184 -0.706897 0.704577
vn -0.669091 -0.322007 0.669798
vn -0.576233 -0.578943 0.576872
vn -0.320357 -0.670982 0.668697
vn -0.326252 -0.327412 0.886770
vn -0.323624 -0.060554 0.944246
vn -0.705373 -0.062328 0.706091
vn 0.320357 -0.670981 0.668697
vn 0.576233 -0.578942 0.576872
vn 0.669091 -0.322007 0.669797
vn 0.326252 -0.327412 0.886770
vn 0.705373 -0.062328 0.706090
vn 0.323624 -0.060554 0.944246
vn -0.058006 0.058015 0.996629
vn 0.058006 0.058015 0.996629
vn 0.060525 0.324656 0.943894
vn -0.060525 0.324656 0.943894
vn -0.062185 0.706898 0.704577
vn 0.062185 0.706898 0.704577
vn -0.320357 0.670982 0.668696
vn -0.576233 0.578943 0.576872
vn -0.669091 0.322007 0.669797
vn -0.326252 0.327412 0.886770
vn -0.705373 0.062329 0.706091
vn -0.323624 0.060554 0.944246
vn 0.705373 0.062329 0.706090
vn 0.323624 0.060554 0.944246
vn 0.669091 0.322007 0.669797
vn 0.576233 0.578943 0.576871
vn 0.320357 0.670982 0.668696
vn 0.326252 0.327413 0.886770
vn 0.057797 0.996654 0.057800
vn -0.057797 0.996654 0.057800
vn -0.060351 0.944506 0.322903
vn 0.060351 0.944506 0.322903
vn -0.668250 0.671241 0.320745
vn -0.325493 0.887655 0.325766
vn -0.322660 0.944589 0.060358
vn -0.704216 0.707254 0.062218
vn 0.668250 0.671241 0.320745
vn 0.325493 0.887655 0.325766
vn 0.704216 0.707255 0.062218
vn 0.322660 0.944589 0.060358
vn 0.057797 0.996654 -0.057800
vn -0.057797 0.996654 -0.057800
vn 0.060351 0.944506 -0.322903
vn -0.060351 0.944506 -0.322903
vn -0.062184 0.706898 -0.704577
vn 0.062184 0.706898 -0.704577
vn -0.320357 0.670981 -0.668697
vn -0.576233 0.578942 -0.576872
vn -0.668250 0.671241 -0.320745
vn -0.325493 0.887655 -0.325766
vn -0.704216 0.707254 -0.062218
vn -0.322660 0.944589 -0.060358
vn 0.704216 0.707255 -0.062218
vn 0.322660 0.944589 -0.060358
vn 0.668250 0.671241 -0.320745
vn 0.576233 0.578943 -0.576872
vn 0.320357 0.670982 -0.668697
vn 0.325493 0.887655 -0.325766
vn 0.058006 0.058015 -0.996629
vn -0.058006 0.058015 -0.996629
vn -0.060525 0.324657 -0.943893
vn 0.060525 0.324657 -0.943893
vn -0.669091 0.322007 -0.669797
vn -0.326252 0.327412 -0.886770
vn -0.323625 0.060554 -0.944246
vn -0.705373 0.062328 -0.706091
vn 0.669091 0.322007 -0.669797
vn 0.326252 0.327412 -0.886770
vn 0.705373 0.062328 -0.706091
vn 0.323624 0.060554 -0.944246
vn -0.058006 -0.058015 -0.996629
vn 0.058006 -0.058015 -0.996629
vn 0.060525 -0.324657 -0.943893
vn -0.060525 -0.324657 -0.943893
vn -0.062185 -0.706898 -0.704577
vn 0.062184 -0.706897 -0.704577
vn -0.320357 -0.670982 -0.668697
vn -0.576233 -0.578942 -0.576872
vn -0.669091 -0.322007 -0.669797
vn -0.326253 -0.327413 -0.886770
vn -0.705373 -0.062328 -0.706091
vn -0.323625 -0.060554 -0.944246
vn 0.705373 -0.062328 -0.706091
vn 0.323625 -0.060554 -0.944246
vn 0.669091 -0.322007 -0.669797
vn 0.576233 -0.578942 -0.576872
vn 0.320357 -0.670981 -0.668697
vn 0.326253 -0.327412 -0.886770
vn 0.057797 -0.996654 -0.057799
vn -0.057797 -0.996654 -0.057799
vn -0.060351 -0.944506 -0.322903
vn 0.060351 -0.944506 -0.322903
vn -0.668250 -0.671241 -0.320745
vn -0.325493 -0.887655 -0.325766
vn -0.322660 -0.944589 -0.060358
vn -0.704216 -0.707254 -0.062218
vn 0.668251 -0.671240 -0.320745
vn 0.325493 -0.887655 -0.325766
vn 0.704216 -0.707254 -0.062218
vn 0.322660 -0.944589 -0.060358
vn 0.057797 -0.996654 0.057799
vn -0.057797 -0.996654 0.057799
vn 0.060351 -0.944506 0.322903
vn -0.060351 -0.944506 0.322903
vn -0.668250 -0.671241 0.320745
vn -0.325493 -0.887655 0.325766
vn -0.704216 -0.707254 0.062218
vn -0.322660 -0.944589 0.060358
vn 0.704216 -0.707254 0.062218
vn 0.322660 -0.944589 0.060358
vn 0.668250 -0.671241 0.320745
vn 0.325493 -0.887655 0.325766
vn 0.886496 -0.327648 -0.326761
vn 0.944056 -0.060608 -0.324167
vn 0.996621 -0.058080 -0.058073
vn 0.943787 -0.324956 -0.060586
vn 0.944056 0.060608 -0.324167
vn 0.996621 0.058080 -0.058073
vn 0.996621 -0.058080 0.058073
vn 0.943787 -0.324956 0.060586
vn 0.996621 0.058080 0.058073
vn 0.944056 0.060608 0.324167
vn 0.944056 -0.060608 0.324167
vn 0.886495 -0.327648 0.326761
vn 0.886495 0.327648 -0.326761
vn 0.943787 0.324956 -0.060586
vn 0.943787 0.324956 0.060586
vn 0.886495 0.327648 0.326761
vn -0.996621 -0.058080 0.058073
vn -0.996621 -0.058080 -0.058073
vn -0.943787 -0.324956 -0.060586
vn -0.943787 -0.324956 0.060586
vn -0.886495 -0.327648 -0.326761
vn -0.944056 -0.060608 -0.324167
vn -0.886495 -0.327648 0.326761
vn -0.944057 -0.060608 0.324167
vn -0.996621 0.058080 0.058073
vn -0.996621 0.058080 -0.058073
vn -0.943787 0.324956 -0.060586
vn -0.943787 0.324956 0.060586
vn -0.886495 0.327648 -0.326761
vn -0.944056 0.060608 -0.324167
vn -0.944057 0.060608 0.324167
vn -0.886495 0.327648 0.326761
s 1
g Box
usemtl blinn1SG
f 34/1/1 33/2/2 81/3/3 83/4/4
f 9/5/5 10/6/6 83/4/4 81/3/3
f 65/7/7 1/8/8 57/9/9 129/10/10
f 57/9/9 9/5/5 81/3/3 129/10/10
f 81/3/3 33/2/2 82/11/11 129/10/10
f 82/11/11 17/12/12 65/7/7 129/10/10
f 58/13/13 2/14/14 66/15/15 130/16/16
f 66/15/15 18/17/17 84/18/18 130/16/16
f 84/18/18 34/1/1 83/4/4 130/16/16
f 83/4/4 10/6/6 58/13/13 130/16/16
f 35/19/19 33/2/2 34/1/1 36/20/20
f 36/20/20 88/21/21 85/22/22 35/19/19
f 11/23/23 85/22/22 88/21/21 12/24/24
f 59/25/25 3/26/26 67/27/27 131/28/28
f 67/27/27 19/29/29 86/30/30 131/28/28
f 86/30/30 35/19/19 85/22/22 131/28/28
f 85/22/22 11/23/23 59/25/25 131/28/28
f 35/19/19 86/30/30 82/11/11 33/2/2
f 17/12/12 82/11/11 86/30/30 19/29/29
f 18/17/17 20/31/31 87/32/32 84/18/18
f 36/20/20 34/1/1 84/18/18 87/32/32
f 68/33/33 4/34/34 60/35/35 132/36/36
f 60/35/35 12/24/24 88/21/21 132/36/36
f 88/21/21 36/20/20 87/32/32 132/36/36
f 87/32/32 20/31/31 68/33/33 132/36/36
f 38/37/37 37/38/38 89/39/39 91/40/40
f 11/41/23 12/42/24 91/40/40 89/39/39
f 69/43/41 3/44/26 59/45/25 133/46/42
f 59/45/25 11/41/23 89/39/39 133/46/42
f 89/39/39 37/38/38 90/47/43 133/46/42
f 90/47/43 21/48/44 69/43/41 133/46/42
f 60/49/35 4/50/34 70/51/45 134/52/46
f 70/51/45 22/53/47 92/54/48 134/52/46
f 92/54/48 38/37/37 91/40/40 134/52/46
f 91/40/40 12/42/24 60/49/35 134/52/46
f 38/37/37 40/55/49 39/56/50 37/38/38
f 40/55/49 96/57/51 93/58/52 39/56/50
f 13/59/53 93/58/52 96/57/51 14/60/54
f 61/61/55 5/62/56 71/63/57 135/64/58
f 71/63/57 23/65/59 94/66/60 135/64/58
f 94/66/60 39/56/50 93/58/52 135/64/58
f 93/58/52 13/59/53 61/61/55 135/64/58
f 39/56/50 94/66/60 90/47/43 37/38/38
f 21/48/44 90/47/43 94/66/60 23/65/59
f 22/53/47 24/67/61 95/68/62 92/54/48
f 40/55/49 38/37/37 92/54/48 95/68/62
f 72/69/63 6/70/64 62/71/65 136/72/66
f 62/71/65 14/60/54 96/57/51 136/72/66
f 96/57/51 40/55/49 95/68/62 136/72/66
f 95/68/62 24/67/61 72/69/63 136/72/66
f 42/73/67 41/74/68 97/75/69 99/76/70
f 13/77/53 14/78/54 99/76/70 97/75/69
f 73/79/71 5/80/56 61/81/55 137/82/72
f 61/81/55 13/77/53 97/75/69 137/82/72
f 97/75/69 41/74/68 98/83/73 137/82/72
f 98/83/73 25/84/74 73/79/71 137/82/72
f 62/85/65 6/86/64 74/87/75 138/88/76
f 74/87/75 26/89/77 100/90/78 138/88/76
f 100/90/78 42/73/67 99/76/70 138/88/76
f 99/76/70 14/78/54 62/85/65 138/88/76
f 43/91/79 41/74/68 42/73/67 44/92/80
f 44/92/80 104/93/81 101/94/82 43/91/79
f 15/95/83 101/94/82 104/93/81 16/96/84
f 63/97/85 7/98/86 75/99/87 139/100/88
f 75/99/87 27/101/89 102/102/90 139/100/88
f 102/102/90 43/91/79 101/94/82 139/100/88
f 101/94/82 15/95/83 63/97/85 139/100/88
f 43/91/79 102/102/90 98/83/73 41/74/68
f 25/84/74 98/83/73 102/102/90 27/101/89
f 26/89/77 28/103/91 103/104/92 100/90/78
f 44/92/80 42/73/67 100/90/78 103/104/92
f 76/105/93 8/106/94 64/107/95 140/108/96
f 64/107/95 16/96/84 104/93/81 140/108/96
f 104/93/81 44/92/80 103/104/92 140/108/96
f 103/104/92 28/103/91 76/105/93 140/108/96
f 46/109/97 45/110/98 105/111/99 107/112/100
f 15/113/83 16/114/84 107/112/100 105/111/99
f 77/115/101 7/116/86 63/117/85 141/118/102
f 63/117/85 15/113/83 105/111/99 141/118/102
f 105/111/99 45/110/98 106/119/103 141/118/102
f 106/119/103 29/120/104 77/115/101 141/118/102
f 64/121/95 8/122/94 78/123/105 142/124/106
f 78/123/105 30/125/107 108/126/108 142/124/106
f 108/126/108 46/109/97 107/112/100 142/124/106
f 107/112/100 16/114/84 64/121/95 142/124/106
f 48/127/109 47/128/110 45/110/98 46/109/97
f 48/127/109 112/129/111 109/130/112 47/128/110
f 9/131/5 109/130/112 112/129/111 10/132/6
f 57/133/9 1/134/8 79/135/113 143/136/114
f 79/135/113 31/137/115 110/138/116 143/136/114
f 110/138/116 47/128/110 109/130/112 143/136/114
f 109/130/112 9/131/5 57/133/9 143/136/114
f 47/128/110 110/138/116 106/119/103 45/110/98
f 29/120/104 106/119/103 110/138/116 31/137/115
f 30/125/107 32/139/117 111/140/118 108/126/108
f 48/127/109 46/109/97 108/126/108 111/140/118
f 80/141/119 2/142/14 58/143/13 144/144/120
f 58/143/13 10/132/6 112/129/111 144/144/120
f 112/129/111 48/127/109 111/140/118 144/144/120
f 111/140/118 32/139/117 80/141/119 144/144/120
f 78/145/105 8/146/94 76/147/93 145/148/121
f 76/147/93 28/149/91 114/150/122 145/148/121
f 114/150/122 49/151/123 113/152/124 145/148/121
f 113/152/124 30/153/107 78/145/105 145/148/121
f 26/154/77 117/155/125 114/150/122 28/149/91
f 51/156/126 49/151/123 114/150/122 117/155/125
f 50/157/127 115/158/128 113/152/124 49/151/123
f 30/153/107 113/152/124 115/158/128 32/159/117
f 52/160/129 50/157/127 49/151/123 51/156/126
f 52/160/129 120/161/130 116/162/131 50/157/127
f 18/163/17 116/162/131 120/161/130 20/164/31
f 66/165/15 2/166/14 80/167/119 146/168/132
f 80/167/119 32/159/117 115/158/128 146/168/132
f 115/158/128 50/157/127 116/162/131 146/168/132
f 116/162/131 18/163/17 66/165/15 146/168/132
f 74/169/75 6/170/64 72/171/63 147/172/133
f 72/171/63 24/173/61 118/174/134 147/172/133
f 118/174/134 51/156/126 117/155/125 147/172/133
f 117/155/125 26/154/77 74/169/75 147/172/133
f 52/160/129 51/156/126 118/174/134 119/175/135
f 22/176/47 119/175/135 118/174/134 24/173/61
f 70/177/45 4/178/34 68/179/33 148/180/136
f 68/179/33 20/164/31 120/161/130 148/180/136
f 120/161/130 52/160/129 119/175/135 148/180/136
f 119/175/135 22/176/47 70/177/45 148/180/136
f 54/181/137 53/182/138 121/183/139 123/184/140
f 29/185/104 31/186/115 123/184/140 121/183/139
f 75/187/87 7/188/86 77/189/101 149/190/141
f 77/189/101 29/185/104 121/183/139 149/190/141
f 121/183/139 53/182/138 122/191/142 149/190/141
f 122/191/142 27/192/89 75/187/87 149/190/141
f 79/193/113 1/194/8 65/195/7 150/196/143
f 65/195/7 17/197/12 124/198/144 150/196/143
f 124/198/144 54/181/137 123/184/140 150/196/143
f 123/184/140 31/186/115 79/193/113 150/196/143
f 56/199/145 55/200/146 53/182/138 54/181/137
f 21/201/44 23/202/59 125/203/147 128/204/148
f 56/199/145 128/204/148 125/203/147 55/200/146
f 71/205/57 5/206/56 73/207/71 151/208/149
f 73/207/71 25/209/74 126/210/150 151/208/149
f 126/210/150 55/200/146 125/203/147 151/208/149
f 125/203/147 23/202/59 71/205/57 151/208/149
f 55/200/146 126/210/150 122/191/142 53/182/138
f 25/209/74 27/192/89 122/191/142 126/210/150
f 17/197/12 19/211/29 127/212/151 124/198/144
f 56/199/145 54/181/137 124/198/144 127/212/151
f 67/213/27 3/214/26 69/215/41 152/216/152
f 69/215/41 21/201/44 128/204/148 152/216/152
f 128/204/148 56/199/145 127/212/151 152/216/152
f 127/212/151 19/211/29 67/213/27 152/216/152
