# This file uses centimeters as units for non-parametric coordinates.

mtllib Level_01.mtl
g default
v 3.528775 -0.054053 -2.206529
v 6.212604 -0.054053 -2.206529
v 4.393627 0.784688 -2.206529
v 5.827475 1.086228 -2.206529
v 4.393627 0.784688 -15.806964
v 5.827475 1.086228 -15.806964
v 3.528775 -0.054053 -15.806964
v 6.212604 -0.054053 -15.806964
v -30.549088 -0.503594 69.347420
v -10.330756 -0.503594 69.347420
v -30.549088 7.340708 69.347420
v -10.330756 7.340708 69.347420
v -30.549088 7.340708 67.815254
v -10.330756 7.340708 67.815254
v -30.549088 -0.503594 67.815254
v -10.330756 -0.503594 67.815254
v 6.514813 -0.470057 -16.676500
v 6.081996 -0.470057 -16.990961
v 5.547005 -0.470057 -16.990961
v 5.114188 -0.470057 -16.676500
v 4.948867 -0.470057 -16.167694
v 5.114189 -0.470057 -15.658888
v 5.547005 -0.470057 -15.344428
v 6.081996 -0.470057 -15.344428
v 6.514813 -0.470057 -15.658888
v 6.680134 -0.470057 -16.167694
v 6.247653 4.622774 -16.482397
v 5.979950 4.622774 -16.676895
v 5.649051 4.622774 -16.676895
v 5.381349 4.622774 -16.482397
v 5.279095 4.622774 -16.167694
v 5.381349 4.622774 -15.852991
v 5.649051 4.622774 -15.658493
v 5.979950 4.622774 -15.658493
v 6.247653 4.622774 -15.852991
v 6.349906 4.622774 -16.167694
v 5.814501 4.831844 -16.167694
v 5.547005 4.274222 -15.344428
v 5.114189 4.274222 -15.658888
v 4.948867 4.274222 -16.167694
v 5.114188 4.274222 -16.676500
v 5.547005 4.274222 -16.990961
v 6.081996 4.274222 -16.990961
v 6.514813 4.274222 -16.676500
v 6.680134 4.274222 -16.167694
v 6.514813 4.274222 -15.658888
v 6.081996 4.274222 -15.344428
v 6.514813 -0.470057 -2.576348
v 6.081996 -0.470057 -2.890808
v 5.547005 -0.470057 -2.890808
v 5.114188 -0.470057 -2.576348
v 4.948867 -0.470057 -2.067542
v 5.114189 -0.470057 -1.558735
v 5.547005 -0.470057 -1.244275
v 6.081996 -0.470057 -1.244275
v 6.514813 -0.470057 -1.558735
v 6.680134 -0.470057 -2.067542
v 6.247653 4.622774 -2.382245
v 5.979950 4.622774 -2.576743
v 5.649051 4.622774 -2.576743
v 5.381349 4.622774 -2.382245
v 5.279095 4.622774 -2.067542
v 5.381349 4.622774 -1.752838
v 5.649051 4.622774 -1.558341
v 5.979950 4.622774 -1.558341
v 6.247653 4.622774 -1.752838
v 6.349906 4.622774 -2.067542
v 5.814501 4.831844 -2.067542
v 5.547005 4.274222 -1.244275
v 5.114189 4.274222 -1.558735
v 4.948867 4.274222 -2.067542
v 5.114188 4.274222 -2.576348
v 5.547005 4.274222 -2.890808
v 6.081996 4.274222 -2.890808
v 6.514813 4.274222 -2.576348
v 6.680134 4.274222 -2.067542
v 6.514813 4.274222 -1.558735
v 6.081996 4.274222 -1.244275
v -30.376968 -0.000000 9.774314
v 7.307243 -0.000000 9.774314
v 59.175495 -0.000000 9.774314
v 143.240067 -0.000000 9.774314
v -30.376968 0.000000 -29.513374
v 7.307243 0.000000 -29.513374
v 59.175495 0.000000 -29.513374
v 143.240067 -0.000000 -29.513374
v 7.307243 -17.694242 9.774314
v 28.356300 -17.694242 9.774312
v 28.356300 -17.694242 -29.513374
v 7.307243 -17.694242 -29.513374
v -10.517375 -0.000000 9.774314
v -10.517375 0.000000 -29.513374
v -30.376968 -0.000000 114.699379
v -10.517373 -0.000000 114.699379
v -30.376968 39.185959 9.774314
v -30.376968 39.185959 -29.513374
v 143.240067 39.185959 9.774314
v 143.240067 39.185959 -29.513374
v -10.517375 39.185959 -29.513374
v -10.517375 39.185959 9.774314
v -30.376968 39.185959 114.699379
v -10.517375 39.185959 114.699379
vt 0.096821 0.048481
vt 0.136645 0.048481
vt 0.130930 0.088305
vt 0.109654 0.077774
vt 0.109654 0.077774
vt 0.130930 0.088305
vt 0.136645 0.048481
vt 0.096821 0.048481
vt 0.020411 0.674961
vt 0.085300 0.674961
vt 0.049597 0.038730
vt 0.083422 0.038730
vt 0.671540 0.080490
vt 0.921540 0.080490
vt 0.921540 0.330490
vt 0.671540 0.330490
vt 0.921540 0.580490
vt 0.671540 0.580490
vt 0.921540 0.830490
vt 0.671540 0.830490
vt 0.280163 0.767547
vt 0.296150 0.767547
vt 0.296150 0.963484
vt 0.280163 0.963484
vt 0.296150 0.767547
vt 0.296150 0.963484
vt 0.280163 0.767547
vt 0.280163 0.963484
vt 0.254295 0.767547
vt 0.254295 0.963484
vt 0.228427 0.767547
vt 0.228427 0.963484
vt 0.212440 0.767547
vt 0.212440 0.963484
vt 0.212440 0.767547
vt 0.212440 0.963484
vt 0.228427 0.767547
vt 0.228427 0.963484
vt 0.254295 0.767547
vt 0.254295 0.963484
vt 0.270295 0.977879
vt 0.280183 0.977879
vt 0.254295 0.986513
vt 0.280183 0.977879
vt 0.270295 0.977879
vt 0.254295 0.977879
vt 0.238296 0.977879
vt 0.228407 0.977879
vt 0.228407 0.977879
vt 0.238296 0.977879
vt 0.254295 0.977879
vt 0.574877 0.399207
vt 0.574505 0.464692
vt 0.015515 0.395651
vt 0.015143 0.461136
vt 0.326021 0.443535
vt 0.065961 0.443535
vt 0.581046 0.728308
vt 0.580815 1.000736
vt 0.065961 0.523009
vt 0.326021 0.523009
vt 0.007420 0.999263
vt 0.007650 0.726835
vt 0.578741 0.464692
vt 0.158601 0.768482
vt 0.174077 0.768482
vt 0.174077 0.958954
vt 0.158601 0.958954
vt 0.174077 0.768482
vt 0.174077 0.958954
vt 0.158601 0.768482
vt 0.158601 0.958954
vt 0.133561 0.768482
vt 0.133561 0.958954
vt 0.108520 0.768482
vt 0.108520 0.958954
vt 0.093045 0.768482
vt 0.093045 0.958954
vt 0.093045 0.768482
vt 0.093045 0.958954
vt 0.108520 0.768482
vt 0.108520 0.958954
vt 0.133561 0.768482
vt 0.133561 0.958954
vt 0.149049 0.972948
vt 0.158621 0.972948
vt 0.133561 0.981341
vt 0.158621 0.972948
vt 0.149049 0.972948
vt 0.133561 0.972948
vt 0.118073 0.972948
vt 0.108501 0.972948
vt 0.108501 0.972948
vt 0.118073 0.972948
vt 0.133561 0.972948
vt 0.608183 0.000000
vt 0.608183 1.000000
vt 0.984898 1.000000
vt 0.984898 0.000000
vt 0.578231 0.554333
vt 0.012085 0.999004
vt 0.575683 1.002561
vt 0.577259 0.725364
vt 0.034299 0.443535
vt 0.034299 0.523009
vt 0.029970 0.461136
vt 0.030342 0.395651
vt 0.621071 0.727571
vt 0.776371 0.727571
vt 0.776371 1.000000
vt 0.621071 1.000000
vt 0.693904 0.765921
vt 0.886467 0.765921
vt 0.886467 0.958484
vt 0.693904 0.958484
vt 0.666667 0.000000
vt 1.000000 0.000000
vt 1.000000 0.622161
vt 0.666667 0.622161
vt 0.969309 0.716689
vt 0.628008 0.716689
vt 0.988955 0.727571
vt 0.988955 1.000000
vt 0.621071 0.000000
vt 0.776371 0.000000
vt 0.580815 1.000736
vt 0.581046 0.728308
vt 0.034299 0.231287
vt 0.065961 0.231287
vt 0.969309 0.283311
vt 0.628008 0.283311
vt 0.015143 0.461136
vt 0.012085 0.999004
vt 0.575683 1.002561
vt 0.577259 0.725364
vt 0.007650 0.726835
vt 0.007420 0.999263
vt 0.581660 0.000737
vt 0.008264 -0.000736
vt 0.578231 0.554333
vt 0.578741 0.464692
vt 0.579113 0.399207
vt 0.468507 0.975057
vt 0.565383 0.975057
vt 0.507821 0.829838
vt 0.468507 0.829838
vt 0.565383 0.975057
vt 0.468507 0.975057
vt 0.468507 0.829838
vt 0.507821 0.829838
vt 0.581046 0.728308
vt 0.581660 0.000737
vt 0.008264 -0.000736
vt 0.007650 0.726835
vt 0.085300 0.987987
vt 0.020411 0.987987
vt 0.083422 0.191283
vt 0.049597 0.191283
vt 0.029194 0.191283
vt 0.029194 0.038730
vn 0.000000 0.000000 1.000000
vn 0.000000 0.000000 1.000000
vn 0.000000 0.000000 1.000000
vn 0.000000 0.000000 1.000000
vn -0.469458 0.882955 0.000000
vn -0.205800 0.978594 0.000000
vn -0.205800 0.978594 0.000000
vn -0.469458 0.882955 0.000000
vn 0.000000 0.000000 -1.000000
vn 0.000000 0.000000 -1.000000
vn 0.000000 0.000000 -1.000000
vn 0.000000 0.000000 -1.000000
vn 0.947421 0.319991 0.000000
vn 0.947421 0.319991 0.000000
vn 0.947421 0.319991 0.000000
vn 0.947421 0.319991 0.000000
vn -0.696187 0.717860 0.000000
vn -0.696187 0.717860 0.000000
vn 0.000000 0.000000 1.000000
vn 0.000000 0.000000 1.000000
vn 0.000000 0.000000 1.000000
vn 0.000000 0.000000 1.000000
vn 0.000000 1.000000 0.000000
vn 0.000000 1.000000 0.000000
vn 0.000000 1.000000 0.000000
vn 0.000000 1.000000 0.000000
vn 0.000000 0.000000 -1.000000
vn 0.000000 0.000000 -1.000000
vn 0.000000 0.000000 -1.000000
vn 0.000000 0.000000 -1.000000
vn 0.809017 0.000000 -0.587785
vn 0.309018 0.000000 -0.951056
vn 0.286535 0.374456 -0.881862
vn 0.750157 0.374456 -0.545021
vn -0.309018 0.000000 -0.951056
vn -0.286535 0.374456 -0.881862
vn -0.809018 0.000000 -0.587785
vn -0.750157 0.374456 -0.545021
vn -1.000000 0.000000 0.000000
vn -0.927245 0.374455 0.000000
vn -0.809017 0.000000 0.587786
vn -0.750157 0.374455 0.545021
vn -0.309017 0.000000 0.951057
vn -0.286534 0.374455 0.881863
vn 0.309017 0.000000 0.951057
vn 0.286534 0.374455 0.881863
vn 0.809017 0.000000 0.587786
vn 0.750157 0.374455 0.545021
vn 1.000000 0.000000 0.000000
vn 0.927245 0.374455 -0.000000
vn 0.450160 0.830895 -0.327061
vn 0.171945 0.830895 -0.529195
vn 0.000000 1.000000 0.000000
vn -0.171945 0.830896 -0.529195
vn -0.450160 0.830895 -0.327060
vn -0.556430 0.830894 0.000000
vn -0.450161 0.830895 0.327061
vn -0.171946 0.830895 0.529195
vn 0.171946 0.830895 0.529196
vn 0.450161 0.830895 0.327061
vn 0.556430 0.830894 -0.000000
vn 0.809017 0.000000 -0.587785
vn 0.309017 0.000000 -0.951056
vn 0.286535 0.374456 -0.881862
vn 0.750157 0.374455 -0.545021
vn -0.309017 0.000000 -0.951057
vn -0.286534 0.374456 -0.881862
vn -0.809017 0.000000 -0.587785
vn -0.750157 0.374455 -0.545021
vn -1.000000 0.000000 0.000000
vn -0.927245 0.374455 0.000000
vn -0.809017 0.000000 0.587785
vn -0.750157 0.374455 0.545021
vn -0.309017 0.000000 0.951057
vn -0.286535 0.374456 0.881862
vn 0.309017 0.000000 0.951056
vn 0.286535 0.374455 0.881862
vn 0.809017 0.000000 0.587785
vn 0.750157 0.374455 0.545021
vn 1.000000 0.000000 -0.000000
vn 0.927245 0.374455 -0.000000
vn 0.450161 0.830895 -0.327061
vn 0.171946 0.830895 -0.529195
vn 0.000000 1.000000 0.000000
vn -0.171946 0.830895 -0.529195
vn -0.450161 0.830895 -0.327060
vn -0.556429 0.830895 0.000000
vn -0.450161 0.830895 0.327061
vn -0.171946 0.830895 0.529195
vn 0.171946 0.830895 0.529196
vn 0.450161 0.830895 0.327061
vn 0.556429 0.830895 0.000000
vn 0.000000 1.000000 0.000000
vn 0.000000 1.000000 0.000000
vn 0.000000 1.000000 0.000000
vn 0.000000 1.000000 0.000000
vn 0.000000 1.000000 0.000000
vn 0.000000 1.000000 0.000000
vn 0.000000 1.000000 0.000000
vn 0.000000 1.000000 0.000000
vn 0.000000 1.000000 0.000000
vn 0.000000 1.000000 0.000000
vn 0.000000 1.000000 0.000000
vn 0.000000 1.000000 0.000000
vn -0.000000 0.000000 -1.000000
vn -0.000000 0.000000 -1.000000
vn -0.000000 0.000000 -1.000000
vn -0.000000 0.000000 -1.000000
vn -0.497904 0.867232 0.000000
vn -0.497904 0.867232 0.000000
vn -0.497904 0.867232 0.000000
vn -0.497904 0.867232 0.000000
vn 0.000000 0.000000 1.000000
vn 0.000000 0.000000 1.000000
vn 0.000000 0.000000 1.000000
vn 0.000000 0.000000 1.000000
vn 1.000000 0.000000 0.000000
vn 1.000000 0.000000 0.000000
vn 1.000000 0.000000 0.000000
vn 1.000000 0.000000 0.000000
vn 0.000000 1.000000 0.000000
vn 0.000000 1.000000 0.000000
vn 0.000000 1.000000 0.000000
vn 0.000000 1.000000 0.000000
vn 1.000000 0.000000 0.000000
vn 1.000000 0.000000 0.000000
vn 1.000000 0.000000 0.000000
vn 1.000000 0.000000 0.000000
vn 0.000000 0.000000 -1.000000
vn 0.000000 0.000000 -1.000000
vn 0.000000 0.000000 -1.000000
vn 0.000000 0.000000 -1.000000
vn 0.000000 0.000000 -1.000000
vn 0.000000 0.000000 -1.000000
vn -1.000000 0.000000 0.000000
vn -1.000000 0.000000 0.000000
vn -1.000000 0.000000 0.000000
vn -1.000000 0.000000 0.000000
vn 0.000000 0.000000 1.000000
vn 0.000000 0.000000 1.000000
vn 0.000000 0.000000 1.000000
vn 0.000000 0.000000 1.000000
vn 1.000000 0.000000 0.000000
vn 1.000000 0.000000 0.000000
vn -1.000000 -0.000000 0.000000
vn -1.000000 -0.000000 0.000000
vn -1.000000 -0.000000 0.000000
vn -1.000000 -0.000000 0.000000
vn 0.000000 0.000000 -1.000000
vn 0.000000 0.000000 -1.000000
vn 0.000000 0.000000 -1.000000
vn 0.000000 0.000000 -1.000000
vn 0.000000 0.000000 1.000000
vn 0.000000 0.000000 1.000000
vn 0.000000 0.000000 1.000000
vn 0.000000 0.000000 1.000000
vn 0.000000 -1.000000 0.000000
vn 0.000000 -1.000000 0.000000
vn 0.000000 -1.000000 0.000000
vn 0.000000 -1.000000 0.000000
vn 0.000000 -1.000000 0.000000
vn 0.000000 -1.000000 0.000000
vn 0.000000 -1.000000 0.000000
vn 0.000000 -1.000000 0.000000
vn 0.000000 -1.000000 0.000000
vn 0.000000 -1.000000 0.000000
s off
g polySurface4
usemtl initialShadingGroup
f 1/1/1 2/2/2 4/3/3 3/4/4
s 2
f 3/11/5 4/12/6 6/157/7 5/158/8
s off
f 5/5/9 6/6/10 8/7/11 7/8/12
f 2/9/13 8/10/14 6/155/15 4/156/16
s 2
f 7/159/17 1/160/18 3/11/5 5/158/8
s off
usemtl lambert4SG
f 9/13/19 10/14/20 12/15/21 11/16/22
f 11/16/23 12/15/24 14/17/25 13/18/26
f 13/18/27 14/17/28 16/19/29 15/20/30
s 8
f 17/21/31 18/22/32 43/23/33 44/24/34
f 18/22/32 19/25/35 42/26/36 43/23/33
f 19/25/35 20/27/37 41/28/38 42/26/36
f 20/27/37 21/29/39 40/30/40 41/28/38
f 21/29/39 22/31/41 39/32/42 40/30/40
f 22/31/41 23/33/43 38/34/44 39/32/42
f 23/33/43 24/35/45 47/36/46 38/34/44
f 24/35/45 25/37/47 46/38/48 47/36/46
f 25/37/47 26/39/49 45/40/50 46/38/48
f 26/39/49 17/21/31 44/24/34 45/40/50
f 27/41/51 28/42/52 37/43/53
f 28/42/52 29/44/54 37/43/53
f 29/44/54 30/45/55 37/43/53
f 30/45/55 31/46/56 37/43/53
f 31/46/56 32/47/57 37/43/53
f 32/47/57 33/48/58 37/43/53
f 33/48/58 34/49/59 37/43/53
f 34/49/59 35/50/60 37/43/53
f 35/50/60 36/51/61 37/43/53
f 36/51/61 27/41/51 37/43/53
f 39/32/42 38/34/44 33/48/58 32/47/57
f 40/30/40 39/32/42 32/47/57 31/46/56
f 41/28/38 40/30/40 31/46/56 30/45/55
f 42/26/36 41/28/38 30/45/55 29/44/54
f 43/23/33 42/26/36 29/44/54 28/42/52
f 44/24/34 43/23/33 28/42/52 27/41/51
f 45/40/50 44/24/34 27/41/51 36/51/61
f 46/38/48 45/40/50 36/51/61 35/50/60
f 47/36/46 46/38/48 35/50/60 34/49/59
f 38/34/44 47/36/46 34/49/59 33/48/58
s 9
f 48/65/62 49/66/63 74/67/64 75/68/65
f 49/66/63 50/69/66 73/70/67 74/67/64
f 50/69/66 51/71/68 72/72/69 73/70/67
f 51/71/68 52/73/70 71/74/71 72/72/69
f 52/73/70 53/75/72 70/76/73 71/74/71
f 53/75/72 54/77/74 69/78/75 70/76/73
f 54/77/74 55/79/76 78/80/77 69/78/75
f 55/79/76 56/81/78 77/82/79 78/80/77
f 56/81/78 57/83/80 76/84/81 77/82/79
f 57/83/80 48/65/62 75/68/65 76/84/81
f 58/85/82 59/86/83 68/87/84
f 59/86/83 60/88/85 68/87/84
f 60/88/85 61/89/86 68/87/84
f 61/89/86 62/90/87 68/87/84
f 62/90/87 63/91/88 68/87/84
f 63/91/88 64/92/89 68/87/84
f 64/92/89 65/93/90 68/87/84
f 65/93/90 66/94/91 68/87/84
f 66/94/91 67/95/92 68/87/84
f 67/95/92 58/85/82 68/87/84
f 70/76/73 69/78/75 64/92/89 63/91/88
f 71/74/71 70/76/73 63/91/88 62/90/87
f 72/72/69 71/74/71 62/90/87 61/89/86
f 73/70/67 72/72/69 61/89/86 60/88/85
f 74/67/64 73/70/67 60/88/85 59/86/83
f 75/68/65 74/67/64 59/86/83 58/85/82
f 76/84/81 75/68/65 58/85/82 67/95/92
f 77/82/79 76/84/81 67/95/92 66/94/91
f 78/80/77 77/82/79 66/94/91 65/93/90
f 69/78/75 78/80/77 65/93/90 64/92/89
s 10
f 79/108/93 91/109/94 92/110/95 83/111/96
s off
f 87/112/97 88/113/98 89/114/99 90/115/100
f 81/116/101 82/117/102 86/118/103 85/119/104
f 80/143/105 81/144/106 88/145/107 87/146/108
f 81/99/109 85/98/110 89/97/111 88/96/112
f 85/147/113 84/148/114 90/149/115 89/150/116
f 84/120/117 80/121/118 87/131/119 90/130/120
s 10
f 91/109/94 80/122/121 84/123/122 92/110/95
f 91/109/94 79/108/93 93/124/123 94/125/124
s 17
f 79/58/125 83/59/126 96/62/127 95/63/128
s off
f 100/132/129 97/133/130 82/134/131 81/135/132 80/140/133 91/141/134
f 86/126/135 82/127/136 97/136/137 98/137/138
s 20
f 83/142/139 92/64/140 99/55/141 96/54/142
s 17
f 93/138/143 79/58/125 95/63/128 101/139/144
s off
f 91/151/145 94/152/146 102/153/147 100/154/148
f 94/53/149 93/52/150 101/107/151 102/106/152
s 20
f 84/100/153 85/103/154 86/102/155 98/101/156 99/55/141 92/64/140
s 23
usemtl initialShadingGroup
f 97/56/157 100/57/158 99/60/159 98/61/160
f 95/104/161 96/105/162 99/60/159 100/57/158
s off
f 101/128/163 95/104/164 100/57/165 102/129/166
